<svg width="141" height="141" xmlns="http://www.w3.org/2000/svg"><path fill="#76B9C8" stroke="#76B9C8" opacity=".98" d="m58.5 13 1.5.5-1 5 1 3-.5 1.5q2.6-.8 1.5 2.5l1 3 2.5 9.5 1.5-.5 1 2-2 1 1.5 2.5-2.5 1.5.5 1.5q-1.2-2.2-2.5.5v2l-.5 1.5q-1.2-2.2-2.5.5 1.3 3.8-2.5 2.5l-4 2-1-3-1.5-.5 1-3-1-3v-2L46 34l-2-.5q2.5-1.5-1-3v-3L40 21l-2-.5Q46.5 15 58.5 13Z"/><path fill="#AAD4EF" stroke="#AAD4EF" opacity=".965" d="m72.5 13 13 2 12 5q13.3 7.2 22.5 18.5l5 8-1.5-.5q-2.2-.7-1.5 1.5l-1.5-.5-8 2h-8l-5-2q-1.5 2.5-3-1h-3L86 40.5 84.5 38 79 33.5l-4-9L74 14l-1.5-1Z"/><path fill="#8399CA" stroke="#8399CA" opacity=".992" d="m65.5 43 5.5 2 1.5 3q6.2.8 9 5h4l9 5q4.7-1.3 6 1h2l3 1 6.5-1 .5 2 2-1 3 1 3-2h9.5v12h-4.5l-2-1-4 1-6-2h-2l-13-1-2-2-3 1q-1.5-3.5-3-1l-16-5q-8.4.9-13-2h-2l-2 1-4.5-6 6-1 1.5-4 1.5.5 1-2-1-1 3.5-3.5Z"/><path fill="#94BADC" stroke="#94BADC" opacity=".988" d="M60.5 13q9.6-1.4 13.5 1l1 10.5 4 9 4.5 4.5 2.5 1.5 1.5 2.5 11 6 2-1 4 2h8l8-2 1.5.5q-.7-2.2 1.5-1.5 5.4 4.4 5.5 13h-8.5l-5 2-2-1-1.5.5q.6-2.7-5.5-1.5h-2l-3-1h-7l-9-5h-4L71 46.5q.8-2.2-1.5-1.5l-4-5 1.5-.5-1.5-2.5-1.5.5-3-10v-2q1.1-3.3-1.5-2.5l.5-1.5-1-7 1.5-1.5Z"/><path fill="#5EAFAB" stroke="#5EAFAB" opacity=".98" d="M36.5 21q4.4-1.5 3.5 1.5l5 10-.5 1.5q2.6-.8 1.5 2.5l5 8-1 3 1 3-.5 1.5 1.5.5-1 3.5-7 5.5 1 4.5-2 .5 1 2.5-2.5-1-1.5.5-1.5-2.5q-2.6-.7-1.5 2h-4v1.5h-1q.8-2.2-1.5-1.5l-4 1-1.5-.5-1.5 2.5-4-2v2l-2-1-4 3-2.5-4.5v-2l-1-6q2.5-1.5 1-7l6-14L30.5 25l6-4Z"/><path fill="#6262A4" stroke="#6262A4" opacity=".992" d="m76.5 74 2 1h2l4 1 4.5-1q-1.1 2.7 1.5 2h2l2-1 8 3h4l3-1 .5 2 7.5 1h2l4 1h2l2.5.5-1 2 1 2-2 7-2.5 2.5-5-1-1.5.5q.8-2.2-1.5-1.5-1.5 2.5-3-1l-4-1-2 1-3-1-3 1-3-1-2 1q-1.5-2.5-3 1l-2-1-.5 2h-4v1.5l-4 4q2.3 1.3-.5 2.5-2.2-.7-1.5 1.5l-2 2v4l-2 2-2 7 .5 1.5-1.5-.5q1 4.5-1.5 5.5h-3l-8.5-5.5 3-7V108q3.7 1.3 2-4.5l2-6v-6l-1-3 1-3v-2l-1-2 3-2q-.7-2.2 1.5-1.5l6-4Z"/><path fill="#76A69D" stroke="#76A69D" opacity=".965" d="m37 66 3 1.5.5 1.5h2q3-.5 1.5 6.5l5 14-1 1 2 4-1 2 1 4-1 2v2l-1 2 1 3-2 4 .5 1.5Q35.3 107.2 26 96.5 15.5 86 11 69.5h1l1.5 3.5 8-4q1.8 3.8 3.5.5l.5-1.5 4 1 2.5-1 .5 2 .5-2q5.2 1.7 4-2Z"/><path fill="#7484B1" stroke="#7484B1" opacity=".996" d="m51.5 54 6 6 1-1 2 1 2-1q4 3 12 2l16 5q1.5-2.5 3 1l3-1 2 2h6l8 2h2l8 1 2-1 5.5 1v5.5q-3 1.3-2 5.5l-3.5-1-2 1-4-2-4 1-4.5-1-.5-2-3 1-5-1-7-2-2 1h-2q-2.6.7-1.5-2h-3.5l-2 1-4-2-2 1h-2L69 78l-1.5 3q-3.7-.7-4.5 1.5l.5 1.5-1.5-.5q0 6-4 8v2l-1 11-4.5 12.5-5.5-3.5 2-6v-2l1-2-1-2 1-4v-2l-1-2 1-1-2-4-3-8-1-13-1-1 2-.5-1-4.5 7-5.5.5-2Z"/><path fill="#6977A1" stroke="#6977A1" opacity=".965" d="m128.5 78 .5 4.5-1.5 2.5-.5-1.5 1.5-5.5ZM64.5 81l2.5 1.5-1 2 1 3-1 3q2.5 1.5 1 7L65 108q-4-1.4-2 5.5l-3 7 4 3-1.5-.5q-8.9-2.6-14.5-8.5l2.5 1.5 2 1 3.5-11.5-.5-1.5 1.5.5q-1.3-8.3 2-12l-1-1 3-3q-.1-5.6 3.5-7.5Z"/><path fill="#4A4E99" stroke="#4A4E99" opacity=".973" d="m94.5 92 2 1 3-1 2 1 2-1 3 1 2-1 6 3 2.5-1 .5 2 2-1 4 1 1.5-.5q-5.8 16.7-18.5 26.5l-13 6-9 1-12.5-2 1-6.5 2-2 1-6 2-2v-4l2-3.5 3-1.5-1-1 4-4V95h4v-1.5l1.5.5 3-2Z"/></svg>