<?xml version="1.0" encoding="utf-8"?>
<!-- Generator: Adobe Illustrator 25.4.1, SVG Export Plug-In . SVG Version: 6.00 Build 0)  -->
<svg version="1.1" id="Ebene_1" xmlns="http://www.w3.org/2000/svg" xmlns:xlink="http://www.w3.org/1999/xlink" x="0px" y="0px"
	 viewBox="0 0 512.7 513" style="enable-background:new 0 0 512.7 513;" xml:space="preserve">
<g>
	<path d="M221,52.4c-6.9,1.3-11.9,0.2-15-3.1c-3.2-3.3-5.5-9.4-7.1-18.1c-1.6-8.7-1.5-15.1,0.3-19.3c1.8-4.1,6.1-6.8,12.9-8.1
		c4.1-0.8,8.7-1,13.8-0.8l0.9,6.2c-4.3,0-8.4,0.4-12.6,1.2c-4.1,0.8-6.7,2.5-7.7,5.2c-1,2.7-0.9,7.5,0.4,14.2
		c1.2,6.8,2.8,11.2,4.7,13.4c1.9,2.2,4.9,2.9,9,2.1c4.1-0.8,8.2-1.9,12.3-3.3l1.4,6.3C229.6,50.3,225.2,51.6,221,52.4z"/>
	<path d="M272.4,43.8c-2.9,3.9-8,5.7-15.2,5.6c-7.2-0.1-12.2-2.2-15.1-6.1c-2.8-4-4.2-10.2-4-18.6c0.1-8.4,1.7-14.7,4.7-18.7
		c3-4.1,8.1-6,15.2-5.9c7.2,0.1,12.2,2.2,15,6.4c2.8,4.1,4.2,10.4,4,18.9C276.9,33.7,275.3,39.9,272.4,43.8z M248.3,38.4
		c1.5,2.8,4.5,4.2,9,4.3c4.5,0.1,7.5-1.2,9.1-3.9c1.6-2.7,2.5-7.2,2.6-13.6c0.1-6.4-0.6-11-2.2-13.9c-1.6-2.9-4.5-4.4-8.9-4.5
		c-4.4-0.1-7.4,1.3-9.1,4.2c-1.7,2.9-2.6,7.4-2.7,13.8C246,31,246.7,35.6,248.3,38.4z"/>
	<path d="M283.1,48.9l11.5-46.5l13.1,3.2l1.4,38.9l19.4-33.7l13.2,3.3l-11.5,46.5l-7.6-1.9l9.5-38.1l-1-0.3l-20,33.5l-7.9-2l-2-38.9
		l-1-0.3l-9.5,38.1L283.1,48.9z"/>
	<path d="M337.9,65.2l19.6-43.7l7.1,3.2L345,68.4L337.9,65.2z"/>
	<path d="M353.7,71.9l26-40.2l11.4,7.4L381,81.4l0.9,0.6l22.3-34.4l6.5,4.2l-26,40.2l-11.1-7.2l9.8-42.6l-0.8-0.5l-22.3,34.5
		L353.7,71.9z"/>
	<path d="M418,98.3l4.8-4.9l9.7,9.6l-17.1,17.3c-1.1-0.7-3.2-2.2-6.2-4.6c-3-2.4-5.1-4.3-6.3-5.5c-5.2-5.1-7.3-10.1-6.4-14.8
		c0.9-4.8,4.3-10.2,10.3-16.3c6-6.1,11.4-9.5,16.2-10.3c4.8-0.8,9.6,1.2,14.5,6.1c2.9,2.9,5.9,6.5,8.8,10.7l1.4,2.1l-4.5,4.2
		c-3.5-4.5-6.8-8.3-10-11.5c-3.2-3.1-6.2-4.4-9.2-3.8c-2.9,0.6-6.8,3.4-11.6,8.2c-4.8,4.8-7.5,8.7-8.2,11.7c-0.7,2.9,0.6,6.1,4,9.4
		c2.4,2.4,4.4,4,5.9,4.9l8.2-8.3L418,98.3z"/>
	<path d="M471.3,129.3c-3-5.1-6.3-6.6-9.9-4.4c-1.8,1.1-2.8,2.5-2.9,4.1c-0.1,1.7,0.6,4.9,1.9,9.7c1.3,4.8,1.7,8.5,1.1,11.1
		c-0.6,2.6-2.6,4.9-6,7c-4.3,2.6-8.3,3.3-11.9,2.1s-6.7-3.9-9.2-8.1c-2-3.4-3.9-7.4-5.5-12l-0.9-2.4l5.7-2.5
		c2.5,5.8,4.6,10.2,6.3,13c3,5,6.6,6.1,11,3.5c1.7-1,2.7-2.3,2.8-4c0.2-1.6-0.5-4.7-1.8-9.2c-1.4-4.5-1.7-8.2-1.2-11.2
		c0.6-2.9,2.7-5.5,6.4-7.7c3.7-2.2,7.3-2.7,10.6-1.4c3.3,1.3,6.3,4.1,8.8,8.4c1.8,3.1,3.6,6.9,5.4,11.6l0.9,2.3l-5.7,2.7
		C474.7,135.8,472.7,131.7,471.3,129.3z"/>
	<path d="M461.9,198.5c-4.7-1.4-8.2-5.5-10.6-12.2c-2.4-6.8-2.3-12.2,0.4-16.3c2.7-4.1,8.1-7.5,16-10.4c7.9-2.9,14.3-3.6,19.2-2.3
		c4.8,1.3,8.5,5.4,10.9,12.1c2.4,6.7,2.2,12.2-0.6,16.3c-2.9,4.1-8.3,7.6-16.2,10.5C472.8,199.1,466.5,199.9,461.9,198.5z
		 M458.4,174c-2,2.4-2.3,5.7-0.8,9.9s3.8,6.6,6.9,7.1c3.1,0.6,7.6-0.2,13.6-2.4s10.1-4.5,12.2-7c2.2-2.5,2.5-5.8,1-9.9
		c-1.5-4.1-3.9-6.5-7.1-7c-3.3-0.6-7.9,0.2-13.8,2.4C464.4,169.3,460.4,171.6,458.4,174z"/>
	<path d="M469.4,242.4c-4.3-2.3-6.9-7-7.9-14.2c-1-7.2,0.3-12.4,3.8-15.8c3.5-3.4,9.4-5.7,17.8-6.8c8.4-1.1,14.8-0.5,19.2,1.8
		c4.5,2.3,7.2,7,8.1,14.2c1,7.1-0.4,12.4-4,15.8c-3.6,3.4-9.7,5.7-18.1,6.8C480,245.2,473.6,244.7,469.4,242.4z M471.1,217.7
		c-2.5,1.9-3.5,5.1-2.9,9.6c0.6,4.4,2.4,7.2,5.2,8.4c2.9,1.2,7.5,1.3,13.8,0.5s10.8-2.3,13.4-4.3c2.6-2,3.7-5.1,3.1-9.5
		c-0.6-4.3-2.4-7.1-5.5-8.3c-3.1-1.2-7.8-1.4-14-0.6C478,214.3,473.6,215.7,471.1,217.7z"/>
	<path d="M465,254l47.7,3.6l-1,13.5l-42,11.4l-0.1,1l40.9,3.1l-0.6,7.7l-47.7-3.6l1-13.2l42.1-11.7l0.1-1l-41-3.1L465,254z"/>
	<path d="M450.6,328.4c2.3-6.6,5.8-10.4,10.2-11.5c4.5-1.1,10.9-0.1,19.2,2.9c8.3,3,13.9,6.3,16.5,9.9c2.7,3.6,2.9,8.7,0.5,15.2
		c-1.4,3.9-3.5,8-6.2,12.3l-5.8-2.4c2.1-3.7,3.9-7.5,5.3-11.5c1.4-4,1.2-7-0.7-9.3s-6-4.5-12.5-6.8c-6.5-2.3-11.1-3.2-14-2.7
		c-2.8,0.5-5,2.8-6.4,6.7c-1.4,4-2.5,8.1-3.3,12.3l-6.1-2C448.1,336.9,449.2,332.4,450.6,328.4z"/>
	<path d="M432.4,377.2c-1.9-4.5-1.1-9.8,2.6-16c3.7-6.2,7.9-9.6,12.8-10.1c4.9-0.5,10.9,1.4,18.2,5.7c7.3,4.3,11.9,8.7,14,13.3
		c2.1,4.6,1.3,10-2.4,16.2c-3.6,6.2-7.9,9.5-12.9,9.9c-5,0.4-11.1-1.5-18.4-5.8C439,386.1,434.3,381.7,432.4,377.2z M449,358.9
		c-3.2,0-5.9,1.9-8.2,5.7c-2.3,3.9-2.6,7.1-1.1,9.9c1.5,2.7,5.1,5.7,10.5,8.9s9.9,4.9,13.2,4.9c3.3,0.1,6.1-1.8,8.3-5.5
		c2.2-3.8,2.5-7.1,0.8-10c-1.7-2.9-5.2-5.9-10.7-9.1C456.5,360.5,452.2,358.9,449,358.9z"/>
	<path d="M422.4,383.8l34.4,33.3l-9.4,9.7l-34.3-18.3l19.4,33.7l-9.4,9.7l-34.4-33.3l5.4-5.6l28.2,27.3l0.7-0.8l-18.9-34.1l5.6-5.8
		l34.7,17.8l0.7-0.8L417,389.3L422.4,383.8z"/>
	<path d="M380.8,423l28,38.8l-6.3,4.5l-28-38.8L380.8,423z"/>
	<path d="M367.1,433.3l21.8,42.6l-12.1,6.2l-31.6-29.9l-0.9,0.5l18.7,36.5l-6.9,3.5l-21.8-42.6l11.8-6l31.9,29.8l0.9-0.4l-18.7-36.6
		L367.1,433.3z"/>
	<path d="M312,475.8l1.8,6.6l-13.2,3.6l-6.3-23.5c1.1-0.6,3.5-1.6,7.1-3c3.6-1.4,6.3-2.3,7.9-2.7c7-1.9,12.4-1.3,16.1,1.9
		c3.7,3.1,6.7,8.9,8.9,17.1c2.2,8.3,2.5,14.6,0.8,19.1c-1.7,4.5-5.9,7.7-12.6,9.5c-4,1.1-8.5,1.8-13.7,2.3l-2.5,0.2l-1.3-6
		c5.6-0.8,10.6-1.7,14.9-2.9c4.3-1.2,6.9-3.2,7.9-6s0.5-7.6-1.3-14.1c-1.8-6.6-3.8-10.9-5.9-13c-2.2-2.1-5.6-2.5-10.2-1.3
		c-3.3,0.9-5.7,1.8-7.2,2.6l3,11.3L312,475.8z"/>
	<path d="M258.6,506.2c5.9-0.1,8.8-2.2,8.8-6.4c0-2.1-0.8-3.7-2.2-4.5s-4.5-2-9.3-3.2c-4.8-1.2-8.2-2.8-10.2-4.6
		c-2-1.8-3-4.7-3.1-8.7c-0.1-5,1.3-8.8,4.1-11.4s6.7-3.8,11.6-3.9c4-0.1,8.3,0.3,13.2,1.2l2.5,0.4l-0.7,6.2
		c-6.3-0.7-11.1-1.1-14.4-1c-5.8,0.1-8.6,2.7-8.5,7.8c0,2,0.7,3.5,2,4.4c1.3,0.9,4.3,1.9,8.9,3c4.6,1.1,8,2.6,10.3,4.6
		c2.3,2,3.4,5.1,3.5,9.4c0.1,4.3-1.3,7.6-4.1,9.9c-2.8,2.3-6.7,3.4-11.6,3.5c-3.6,0.1-7.8-0.3-12.7-1.1l-2.5-0.4l0.5-6.3
		C251.3,505.9,255.9,506.2,258.6,506.2z"/>
	<path d="M203.3,463.3c3.5-3.3,8.8-4.4,15.9-3.1c7.1,1.3,11.7,4.1,13.9,8.5c2.1,4.4,2.5,10.7,1,19c-1.5,8.3-4,14.2-7.6,17.7
		c-3.6,3.5-8.9,4.6-16,3.4c-7.1-1.3-11.6-4.2-13.8-8.7c-2.1-4.5-2.4-11-0.9-19.3C197.3,472.5,199.8,466.7,203.3,463.3z M226.3,472.6
		c-1.1-3-3.8-4.9-8.2-5.7c-4.4-0.8-7.6,0-9.6,2.4c-2,2.4-3.6,6.7-4.7,13c-1.1,6.3-1.2,10.9-0.1,14.1s3.8,5.1,8.1,5.9
		c4.3,0.8,7.5-0.1,9.6-2.7c2.1-2.6,3.7-6.9,4.9-13.1S227.3,475.6,226.3,472.6z"/>
	<path d="M161.7,447.9c4.1-2.5,9.5-2.4,16.2,0.3c6.7,2.7,10.6,6.5,11.8,11.2c1.2,4.7,0.2,11-3,18.8c-3.2,7.8-6.9,13-11.2,15.7
		c-4.2,2.7-9.7,2.7-16.3,0c-6.6-2.7-10.5-6.5-11.6-11.4c-1.1-4.9-0.1-11.2,3.1-19.1C153.8,455.6,157.5,450.4,161.7,447.9z
		 M182.1,461.7c-0.4-3.1-2.7-5.6-6.8-7.3c-4.1-1.7-7.4-1.6-9.9,0.3c-2.5,1.9-4.9,5.8-7.3,11.7s-3.4,10.5-3,13.7
		c0.4,3.3,2.6,5.8,6.7,7.4c4.1,1.7,7.4,1.5,10-0.6c2.6-2.1,5.1-6,7.5-11.8C181.6,469.4,182.6,464.9,182.1,461.7z"/>
	<path d="M153.8,438.3l-27.1,39.4l-11.2-7.7l11.3-42l-0.9-0.6l-23.3,33.8l-6.4-4.4l27.1-39.4l10.9,7.5l-11,42.3l0.8,0.6l23.3-33.8
		L153.8,438.3z"/>
	<path d="M96.7,388.4c4.5,5.3,6.1,10.2,4.8,14.6c-1.3,4.4-5.4,9.5-12.1,15.2c-6.7,5.7-12.4,8.8-16.9,9.4c-4.5,0.5-9-1.9-13.5-7.2
		c-2.7-3.2-5.2-7-7.5-11.6l5-3.9c2.1,3.7,4.6,7.1,7.3,10.3c2.7,3.2,5.5,4.6,8.4,4.1c2.9-0.5,6.9-2.9,12.2-7.4
		c5.2-4.4,8.3-8,9.3-10.7c1-2.7,0.1-5.7-2.6-8.9c-2.7-3.2-5.7-6.2-9-9l4.8-4.3C90.6,382,93.9,385.2,96.7,388.4z"/>
	<path d="M63.5,348.2c4.8,0.6,9,4,12.6,10.3s4.3,11.6,2.3,16.1c-2,4.5-6.7,8.8-14,12.9c-7.3,4.2-13.5,6-18.5,5.5
		c-5-0.5-9.3-3.9-12.8-10.1c-3.5-6.2-4.2-11.6-2.1-16.1c2.1-4.5,6.9-8.9,14.2-13.1C52.6,349.5,58.7,347.6,63.5,348.2z M71.1,371.8
		c1.6-2.7,1.3-6-0.9-9.9c-2.2-3.9-4.9-5.8-8-5.9c-3.1,0-7.4,1.5-13,4.7c-5.5,3.1-9.2,6.1-10.9,8.9c-1.7,2.8-1.5,6.1,0.7,9.9
		c2.2,3.8,4.9,5.7,8.2,5.7c3.3,0,7.7-1.6,13.2-4.7C65.9,377.4,69.5,374.5,71.1,371.8z"/>
	<path d="M62.8,336.3l-46.1,13l-3.7-13l33.1-20.4l-38.9-0.1l-3.7-13l46.1-13l2.1,7.5L14,307.9l0.3,1l39,0.8l2.2,7.8l-32.8,21l0.3,1
		l37.8-10.7L62.8,336.3z"/>
	<path d="M49.8,280.6l-47.6,4.6l-0.7-7.7l47.6-4.6L49.8,280.6z"/>
	<path d="M47.8,263.6L0,261l0.7-13.5l41.7-12.3l0.1-1l-41-2.2l0.4-7.7l47.8,2.6L49.1,240L7.2,252.7l-0.1,1l41,2.2L47.8,263.6z"/>
	<path d="M38.7,194.6l-6.6-1.8l3.5-13.2l23.5,6.3c0,1.3-0.3,3.9-1,7.7c-0.6,3.8-1.2,6.5-1.6,8.2c-1.9,7-5.1,11.3-9.7,13
		c-4.6,1.6-11,1.3-19.3-0.9c-8.3-2.2-13.9-5.2-17-8.9c-3.1-3.7-3.7-8.9-1.9-15.7c1.1-4,2.7-8.3,4.9-13l1.1-2.2l5.9,1.9
		c-2.2,5.3-3.8,10-5,14.4s-0.7,7.6,1.3,9.9c2,2.2,6.3,4.2,12.9,6c6.6,1.8,11.3,2.2,14.2,1.4c2.9-0.8,5-3.6,6.2-8.2
		c0.9-3.3,1.3-5.8,1.4-7.5l-11.3-3L38.7,194.6z"/>
	<path d="M39.3,133c-2.9,5.1-2.6,8.7,1,10.8c1.9,1.1,3.5,1.2,5,0.4c1.5-0.8,4-2.9,7.5-6.4c3.5-3.5,6.5-5.6,9.1-6.4
		c2.6-0.8,5.6-0.2,9,1.7c4.4,2.5,6.9,5.6,7.7,9.3c0.8,3.7-0.1,7.7-2.5,12c-2,3.4-4.5,7-7.7,10.7l-1.7,1.9l-5-3.7
		c3.8-5.1,6.6-9,8.2-11.9c2.8-5,2-8.8-2.4-11.3c-1.7-1-3.4-1.1-4.8-0.5c-1.5,0.7-3.8,2.7-7.1,6.1c-3.2,3.4-6.3,5.6-9.1,6.5
		c-2.8,1-6.2,0.4-9.9-1.8c-3.8-2.1-5.9-5-6.5-8.5c-0.5-3.5,0.4-7.5,2.9-11.8c1.8-3.1,4.2-6.6,7.4-10.4l1.6-1.9l5.2,3.6
		C43.2,126.8,40.6,130.6,39.3,133z"/>
	<path d="M104,106.9c1.1,4.7-0.7,9.8-5.3,15.3c-4.7,5.5-9.5,8.1-14.3,7.7c-4.9-0.4-10.5-3.3-16.9-8.7c-6.4-5.5-10.2-10.6-11.5-15.5
		c-1.2-4.9,0.5-10,5.1-15.5c4.7-5.5,9.5-8,14.4-7.5c5,0.4,10.7,3.4,17.1,8.9C99.1,97.1,102.9,102.2,104,106.9z M84.5,122.1
		c3.1,0.6,6.1-0.8,9-4.2c2.9-3.4,3.8-6.6,2.8-9.5c-1-2.9-4-6.5-8.8-10.6c-4.8-4.1-8.9-6.5-12.1-7.2c-3.2-0.7-6.3,0.7-9.1,4
		c-2.8,3.3-3.7,6.6-2.6,9.7c1.1,3.1,4.1,6.7,8.9,10.8C77.4,119.1,81.4,121.5,84.5,122.1z"/>
	<path d="M138.3,78.6c0.1,4.8-2.7,9.5-8.4,13.9c-5.7,4.4-10.9,5.9-15.6,4.6c-4.7-1.4-9.6-5.4-14.8-12c-5.2-6.7-7.8-12.5-8-17.5
		c-0.2-5,2.5-9.7,8.2-14.1c5.7-4.4,10.9-5.8,15.7-4.4c4.8,1.5,9.8,5.5,14.9,12.3C135.5,67.9,138.2,73.7,138.3,78.6z M116.1,89.4
		c2.9,1.2,6.2,0.4,9.7-2.3c3.5-2.7,5.1-5.6,4.7-8.7c-0.4-3.1-2.6-7.2-6.5-12.2c-3.9-5-7.3-8.2-10.4-9.5c-3-1.3-6.3-0.6-9.8,2.1
		c-3.5,2.7-5,5.7-4.5,8.9c0.5,3.3,2.6,7.4,6.5,12.4C109.7,85.1,113.1,88.2,116.1,89.4z"/>
	<path d="M150.5,76.6L130,33.4l12.2-5.8l30.7,30.8l0.9-0.4l-17.6-37l7-3.3l20.6,43.2l-12,5.7l-31.1-30.7l-0.9,0.4l17.6,37.1
		L150.5,76.6z"/>
</g>
</svg>
