<svg id="Ebene_1" data-name="Ebene 1" xmlns="http://www.w3.org/2000/svg" viewBox="0 0 394.67 122.82"><defs><style>.cls-1{fill:#fff;}</style></defs><path class="cls-1" d="M67.67,47.49a3.3,3.3,0,0,1,2.38.95,3.43,3.43,0,0,1,1,2.59,6.57,6.57,0,0,1,0,.74,1.56,1.56,0,0,1-.21.65L57.47,90.73A3.65,3.65,0,0,1,56,92.51a2.93,2.93,0,0,1-2.12.47,3.43,3.43,0,0,1-3-2.25L40,63.49l1.73.26-9.86,27a3.3,3.3,0,0,1-3,2.25,3.06,3.06,0,0,1-2.16-.47,3.56,3.56,0,0,1-1.47-1.78L11.71,52.42A3.8,3.8,0,0,1,11.45,51a3.57,3.57,0,0,1,1-2.51,3.35,3.35,0,0,1,2.6-1,3.68,3.68,0,0,1,1.9.51,2.86,2.86,0,0,1,1.21,1.73l11.68,34L28,83.64,38,57.69a3.34,3.34,0,0,1,3.29-2.16,3.16,3.16,0,0,1,2,.56,3.26,3.26,0,0,1,1.08,1.6l10.55,26-2.16.18L64.39,49.73A3.06,3.06,0,0,1,67.67,47.49Z"/><path class="cls-1" d="M101.06,93.85a24.38,24.38,0,0,1-12.2-2.94,20.7,20.7,0,0,1-8-8.09A24.12,24.12,0,0,1,78,70.93a25.89,25.89,0,0,1,3-12.85A21.12,21.12,0,0,1,88.74,50,19.81,19.81,0,0,1,98.9,47.14a20.78,20.78,0,0,1,7.7,1.47,19.16,19.16,0,0,1,6.57,4.32,22.34,22.34,0,0,1,4.59,6.75,22.63,22.63,0,0,1,1.81,8.82,2.9,2.9,0,0,1-1,2.3,3.56,3.56,0,0,1-2.42.9H82l-1.56-6h33.22L112.22,67v-1.9a10.8,10.8,0,0,0-2.29-6.1,14,14,0,0,0-11-5.32,14.74,14.74,0,0,0-5.15.95,12.83,12.83,0,0,0-4.58,2.94,14.64,14.64,0,0,0-3.29,5.19,21,21,0,0,0-1.25,7.7,18.52,18.52,0,0,0,2,8.82,15.26,15.26,0,0,0,5.67,6,17.67,17.67,0,0,0,13.75,1.43,14.61,14.61,0,0,0,3.85-2,19.18,19.18,0,0,0,2.72-2.37,3.93,3.93,0,0,1,2.25-.78,2.82,2.82,0,0,1,2.08.86,2.86,2.86,0,0,1,.86,2.08,3.54,3.54,0,0,1-1.38,2.68,22.16,22.16,0,0,1-6.62,4.67A20,20,0,0,1,101.06,93.85Z"/><path class="cls-1" d="M152,47.14a19.16,19.16,0,0,1,10.55,3A21.24,21.24,0,0,1,170,58.3a25.57,25.57,0,0,1,2.72,12A26.09,26.09,0,0,1,170,82.43a21.81,21.81,0,0,1-7.36,8.35,18.39,18.39,0,0,1-10.42,3.07,17.71,17.71,0,0,1-6-1,19.07,19.07,0,0,1-5.1-2.68,19.6,19.6,0,0,1-3.85-3.67A13.52,13.52,0,0,1,135,82.43l1.9-1.12v8.56a3.6,3.6,0,0,1-1,2.51,3.26,3.26,0,0,1-2.51,1,3.35,3.35,0,0,1-2.46-1,3.42,3.42,0,0,1-1-2.55V32.52A3.47,3.47,0,0,1,131,30a3.51,3.51,0,0,1,5,0,3.6,3.6,0,0,1,1,2.51V59.16l-1.3-.69a12.86,12.86,0,0,1,2.12-4.19,17.16,17.16,0,0,1,3.72-3.64,19.5,19.5,0,0,1,4.93-2.55A17.22,17.22,0,0,1,152,47.14Zm-.78,6.4a13.57,13.57,0,0,0-7.66,2.21,14.87,14.87,0,0,0-5.18,6,19.06,19.06,0,0,0-1.87,8.61,19.9,19.9,0,0,0,1.87,8.74,15,15,0,0,0,5.18,6.14,13.37,13.37,0,0,0,7.66,2.25,13.15,13.15,0,0,0,7.61-2.25A15.58,15.58,0,0,0,164,79.06a19.64,19.64,0,0,0,1.91-8.74A18.81,18.81,0,0,0,164,61.71a15.45,15.45,0,0,0-5.19-6A13.34,13.34,0,0,0,151.23,53.54Z"/><path class="cls-1" d="M180.47,85.89a4.1,4.1,0,0,1-.65-2.38,2.81,2.81,0,0,1,1.42-2.2,3.35,3.35,0,0,1,2.12-.52,3.17,3.17,0,0,1,2.12,1.12A19.11,19.11,0,0,0,191,86.45a15.74,15.74,0,0,0,7.61,1.69,18,18,0,0,0,4.11-.69,7.69,7.69,0,0,0,3.55-2.12,5.63,5.63,0,0,0,1.42-4,5.11,5.11,0,0,0-1.47-3.85,11.22,11.22,0,0,0-3.85-2.34,47.72,47.72,0,0,0-5.06-1.6c-1.9-.52-3.78-1.09-5.62-1.73a20.22,20.22,0,0,1-5-2.46,11.75,11.75,0,0,1-3.55-3.81,11.12,11.12,0,0,1-1.34-5.67A10.94,10.94,0,0,1,184,53.11a13.66,13.66,0,0,1,5.66-4.41,19.38,19.38,0,0,1,7.88-1.56,24.64,24.64,0,0,1,5.06.56,19.87,19.87,0,0,1,5.14,1.9,14.55,14.55,0,0,1,4.41,3.68,3.5,3.5,0,0,1,.87,2.16,2.78,2.78,0,0,1-1.12,2.34,3.33,3.33,0,0,1-2.12.65,2.8,2.8,0,0,1-1.95-.82,12.36,12.36,0,0,0-4.63-3.42,15.09,15.09,0,0,0-6-1.17,12.85,12.85,0,0,0-4,.65,8,8,0,0,0-3.33,2,5.4,5.4,0,0,0-1.34,3.9,5.46,5.46,0,0,0,1.56,3.8,10.54,10.54,0,0,0,4,2.38q2.5.91,5.53,1.77,2.78.7,5.32,1.6a19.09,19.09,0,0,1,4.63,2.38,10.7,10.7,0,0,1,3.29,3.77A12.28,12.28,0,0,1,214,81.05a10.91,10.91,0,0,1-2.25,6.88,14.08,14.08,0,0,1-5.93,4.4,20.56,20.56,0,0,1-7.91,1.52,26.42,26.42,0,0,1-9.43-1.77A18.23,18.23,0,0,1,180.47,85.89Z"/><path class="cls-1" d="M243.87,47.14a31.36,31.36,0,0,1,8,1,15.55,15.55,0,0,1,5.62,2.6,4.71,4.71,0,0,1,2.08,3.71,3.72,3.72,0,0,1-.78,2.25,2.54,2.54,0,0,1-2.17,1,3.42,3.42,0,0,1-1.86-.47,8.13,8.13,0,0,1-1.38-1.13,7.68,7.68,0,0,0-1.77-1.25,12.29,12.29,0,0,0-3-.91,20.65,20.65,0,0,0-4-.39,15.42,15.42,0,0,0-8.35,2.25,16.1,16.1,0,0,0-5.66,6.06,17.68,17.68,0,0,0-2.08,8.65,18.31,18.31,0,0,0,2,8.64,15.57,15.57,0,0,0,5.54,6.06,15,15,0,0,0,8.21,2.25,17.54,17.54,0,0,0,4.8-.52,16.23,16.23,0,0,0,3.07-1.21,10.65,10.65,0,0,0,2.3-1.73,3,3,0,0,1,2.29-.87,2.85,2.85,0,0,1,2.29,1,3.42,3.42,0,0,1,.82,2.33c0,1.1-.72,2.22-2.16,3.37a17.91,17.91,0,0,1-5.88,2.9,27.63,27.63,0,0,1-8.31,1.17A21.28,21.28,0,0,1,232,90.78a20.88,20.88,0,0,1-7.65-8.39,25.67,25.67,0,0,1-2.73-11.89,24.87,24.87,0,0,1,2.81-11.86,21.8,21.8,0,0,1,7.83-8.39A21.56,21.56,0,0,1,243.87,47.14Z"/><path class="cls-1" d="M272.42,93A3.27,3.27,0,0,1,270,92a3.53,3.53,0,0,1-1-2.51V51.81a3.46,3.46,0,0,1,1-2.55,3.35,3.35,0,0,1,2.47-1,3.31,3.31,0,0,1,2.5,1,3.5,3.5,0,0,1,.95,2.55V63.14l-1-1.81a18.58,18.58,0,0,1,1.86-5.24,18.16,18.16,0,0,1,3.41-4.58,15.7,15.7,0,0,1,4.76-3.2,14.56,14.56,0,0,1,5.88-1.17,7,7,0,0,1,3.51.91,2.81,2.81,0,0,1,1.6,2.55,3.6,3.6,0,0,1-1,2.73,3,3,0,0,1-2.16.9,4.71,4.71,0,0,1-2.16-.52,5.88,5.88,0,0,0-2.6-.51,8.63,8.63,0,0,0-4.28,1.2,14.4,14.4,0,0,0-3.89,3.34A17.51,17.51,0,0,0,277,62.58a15.51,15.51,0,0,0-1.09,5.84v21a3.52,3.52,0,0,1-1,2.51A3.26,3.26,0,0,1,272.42,93Z"/><path class="cls-1" d="M344.21,70.5a24.11,24.11,0,0,1-3,12,22.36,22.36,0,0,1-8.05,8.3,22.94,22.94,0,0,1-22.79,0,22.08,22.08,0,0,1-8.09-8.3,24,24,0,0,1-3-12,24,24,0,0,1,3-12,22,22,0,0,1,19.5-11.33,21.72,21.72,0,0,1,11.38,3,22.36,22.36,0,0,1,8.05,8.3A24.12,24.12,0,0,1,344.21,70.5Zm-7,0a18.28,18.28,0,0,0-2-8.79,15.82,15.82,0,0,0-5.54-6,14.37,14.37,0,0,0-7.83-2.21,14.55,14.55,0,0,0-7.91,2.21,16.16,16.16,0,0,0-5.58,6,18,18,0,0,0-2.07,8.79,18,18,0,0,0,2.07,8.73,16,16,0,0,0,5.58,6,14.55,14.55,0,0,0,7.91,2.21,14.37,14.37,0,0,0,7.83-2.21,15.67,15.67,0,0,0,5.54-6A18.32,18.32,0,0,0,337.2,70.5Z"/><path class="cls-1" d="M362.2,89.44A3.53,3.53,0,0,1,358.65,93a3.26,3.26,0,0,1-2.46-1,3.53,3.53,0,0,1-1-2.51V32.52A3.53,3.53,0,0,1,358.74,29a3.25,3.25,0,0,1,2.51,1,3.6,3.6,0,0,1,.95,2.51Z"/><path class="cls-1" d="M383.22,89.44A3.53,3.53,0,0,1,379.67,93a3.26,3.26,0,0,1-2.46-1,3.49,3.49,0,0,1-1-2.51V32.52A3.53,3.53,0,0,1,379.76,29a3.25,3.25,0,0,1,2.51,1,3.6,3.6,0,0,1,1,2.51Z"/></svg>