<svg width="41" height="52" viewBox="0 0 41 52" fill="none" xmlns="http://www.w3.org/2000/svg">
<path d="M1 24.5H0V24.8663L0.236614 25.1459L1 24.5ZM17.5 44L16.7366 44.6459L17.0362 45H17.5V44ZM40.7071 44.7071C41.0976 44.3166 41.0976 43.6834 40.7071 43.2929L34.3431 36.9289C33.9526 36.5384 33.3195 36.5384 32.9289 36.9289C32.5384 37.3195 32.5384 37.9526 32.9289 38.3431L38.5858 44L32.9289 49.6569C32.5384 50.0474 32.5384 50.6805 32.9289 51.0711C33.3195 51.4616 33.9526 51.4616 34.3431 51.0711L40.7071 44.7071ZM0 0V24.5H2V0H0ZM0.236614 25.1459L16.7366 44.6459L18.2634 43.3541L1.76339 23.8541L0.236614 25.1459ZM17.5 45H40V43H17.5V45Z" fill="#DDDDDD"/>
</svg>
